<svg xmlns="http://www.w3.org/2000/svg" width="66" height="66" viewBox="0 0 66 66" fill="none">
<path d="M36.4173 2.51786L41.7442 19.139C42.2253 20.6399 43.6054 21.6564 45.1616 21.6564H62.3989C65.8804 21.6564 67.3277 26.1732 64.5115 28.2475L50.5664 38.5197C49.3071 39.4479 48.7798 41.092 49.2609 42.5936L54.5878 59.2147C55.6636 62.5718 51.8738 65.3629 49.0576 63.2885L35.1125 53.0163C33.8532 52.0889 32.1471 52.0889 30.8878 53.0163L16.9427 63.2885C14.1265 65.3629 10.3367 62.5718 11.4125 59.2147L16.7387 42.5936C17.2199 41.0926 16.6925 39.4479 15.4333 38.5197L1.48812 28.2475C-1.3281 26.1732 0.11928 21.6564 3.60078 21.6564H20.838C22.3949 21.6564 23.775 20.6399 24.2561 19.139L29.5823 2.51786C30.6581 -0.839288 35.3422 -0.839288 36.418 2.51786" fill="#E4142C"/>
<path d="M38.7347 32.0911C38.7347 31.6308 38.5077 31.4012 38.0542 31.4012H34.877C34.446 31.4012 34.1965 31.1483 34.1965 30.7113V28.1344C34.1965 27.674 34.446 27.4445 34.877 27.4445H46.495C46.9491 27.4445 47.1754 27.6747 47.1754 28.1344V30.7113C47.1754 31.1483 46.9484 31.4012 46.495 31.4012H43.3184C42.8874 31.4012 42.6379 31.6314 42.6379 32.0911V42.8585C42.6379 43.2955 42.4109 43.5484 41.9568 43.5484H39.4152C38.9842 43.5484 38.7347 43.2955 38.7347 42.8585V32.0911ZM27.252 34.5302C28.341 34.5302 28.8862 34.3924 28.8862 32.9657C28.8862 31.5391 28.3417 31.4012 27.252 31.4012H26.0264C25.5954 31.4012 25.3459 31.6314 25.3459 32.0911V33.8396C25.3459 34.2766 25.5954 34.5295 26.0264 34.5295H27.252V34.5302ZM27.1161 27.4438C31.1553 27.4438 32.7894 29.1923 32.7894 32.9657C32.7894 36.7391 31.1559 38.4876 27.1161 38.4876H26.0271C25.5961 38.4876 25.3466 38.7178 25.3466 39.1775V42.8585C25.3466 43.3189 25.1196 43.5484 24.6655 43.5484H22.1238C21.6928 43.5484 21.4434 43.2955 21.4434 42.8585V28.1572C21.4434 27.6968 21.6704 27.4673 22.1238 27.4438H27.1161Z" fill="white"/>
</svg>
